<?xml version="1.0" standalone="no"?>
<!DOCTYPE svg PUBLIC "-//W3C//DTD SVG 20010904//EN"
 "http://www.w3.org/TR/2001/REC-SVG-20010904/DTD/svg10.dtd">
<svg version="1.0" xmlns="http://www.w3.org/2000/svg"
 width="706.000000pt" height="706.000000pt" viewBox="0 0 706.000000 706.000000"
 preserveAspectRatio="xMidYMid meet">
<metadata>
Created by potrace 1.14, written by Peter Selinger 2001-2017
</metadata>
<g transform="translate(0.000000,706.000000) scale(0.100000,-0.100000)"
fill="#000000" stroke="none">
<path d="M5080 6379 c-79 -48 -164 -174 -176 -262 -4 -26 -8 -47 -9 -47 -2 0
-34 12 -71 26 -202 77 -428 137 -601 160 -26 3 -50 7 -53 9 -17 10 -216 20
-400 20 -190 0 -310 -6 -390 -19 -14 -3 -42 -7 -62 -10 -21 -3 -55 -9 -75 -12
-264 -41 -647 -180 -913 -331 -305 -174 -604 -426 -820 -693 -93 -114 -90
-110 -183 -250 -79 -117 -237 -409 -237 -436 0 -3 -11 -29 -24 -57 -44 -97
-118 -331 -142 -447 -3 -14 -9 -41 -14 -60 -5 -19 -11 -52 -14 -72 -3 -21 -9
-55 -12 -75 -3 -21 -7 -49 -10 -63 -25 -153 -26 -647 0 -786 2 -11 9 -53 16
-94 53 -323 178 -674 346 -964 21 -37 44 -75 49 -85 12 -21 106 -160 122 -181
187 -243 345 -406 558 -579 66 -53 166 -122 283 -195 292 -183 689 -331 1032
-386 41 -7 82 -14 91 -15 111 -21 535 -27 704 -12 50 5 92 10 95 12 3 2 27 6
53 9 137 19 341 69 497 123 946 325 1668 1124 1893 2093 25 105 31 139 42 215
4 22 8 47 10 55 26 98 27 657 1 797 -2 10 -7 38 -11 63 -13 79 -16 93 -36 185
-35 159 -98 358 -145 462 -13 28 -24 54 -24 58 0 3 -16 37 -35 76 -22 45 -33
81 -31 99 2 17 -1 27 -6 24 -5 -3 -7 -13 -4 -23 5 -14 4 -14 -5 -1 -47 70
-100 178 -96 198 4 22 -8 32 -15 11 -2 -6 -18 11 -35 37 -71 111 -145 210
-241 322 -52 60 -54 64 -36 77 11 8 22 15 26 15 4 0 24 15 44 34 l38 35 25
-27 26 -27 -30 -26 c-16 -15 -33 -25 -36 -23 -4 2 -12 -3 -19 -11 -9 -10 -9
-15 -1 -15 6 0 11 5 11 12 0 6 2 9 5 6 3 -3 1 -16 -4 -30 -8 -22 -7 -24 18
-22 31 2 86 23 79 29 -2 3 -19 1 -36 -5 -39 -11 -34 3 15 45 l33 27 -35 32
c-19 19 -35 41 -35 50 0 22 -17 20 -25 -3 -8 -25 -108 -94 -131 -89 -32 6 -25
23 41 93 84 91 86 100 10 63 -24 -12 -48 -19 -52 -15 -7 8 95 107 109 107 15
0 8 28 -8 34 -14 6 -54 -9 -54 -20 0 -2 9 0 21 6 38 21 30 3 -11 -24 -22 -14
-52 -44 -66 -66 -38 -57 -17 -77 49 -44 l32 16 -31 -33 c-17 -19 -42 -45 -55
-59 l-24 -25 -98 95 -98 95 128 131 c70 72 139 138 152 147 14 9 22 19 18 23
-9 9 -70 -31 -134 -86 -64 -57 -92 -68 -85 -35 6 31 -25 40 -71 20 -20 -8 -50
-15 -66 -15 -29 0 -30 1 -19 25 8 18 16 23 32 19 14 -3 28 2 39 14 16 17 16
21 2 32 -19 16 -56 2 -132 -47 -28 -18 -54 -33 -57 -33 -16 0 53 105 112 170
12 14 22 28 22 33 0 4 16 0 37 -8 20 -8 38 -13 41 -10 3 2 -4 8 -14 11 -39 14
-44 24 -28 49 20 30 3 40 -25 14 -19 -18 -27 -19 -54 -10 l-32 11 23 -20 24
-20 -39 -49 c-21 -28 -41 -50 -44 -51 -4 0 -31 -16 -60 -35 -80 -55 -86 -34
-21 70 33 51 40 110 15 123 -26 14 -45 8 -103 -32 -52 -36 -100 -47 -100 -23
0 18 18 42 26 35 11 -11 41 9 47 31 11 42 -48 30 -80 -16 -22 -31 -23 -70 -3
-83 8 -5 27 -3 46 5 31 13 32 12 29 -6 -6 -29 31 -40 73 -22 19 8 36 12 38 10
3 -2 -7 -27 -22 -55 -44 -86 -13 -104 69 -41 43 34 44 32 17 -21 -33 -64 -17
-89 36 -58 18 10 38 26 44 34 19 22 31 16 18 -10 -18 -40 -4 -59 41 -54 36 3
38 2 29 -15 -18 -35 5 -42 71 -20 l60 19 -47 -45 c-26 -25 -50 -45 -53 -44 -4
1 -13 -5 -21 -15 -12 -15 -11 -16 5 -3 11 9 17 10 17 2 0 -6 -6 -14 -14 -17
-17 -7 -216 143 -216 163 0 7 -5 13 -11 13 -5 0 -7 -5 -3 -11 3 -6 -11 1 -32
15 -79 51 -241 146 -317 184 l-78 39 56 42 56 42 -7 -28 c-10 -43 -10 -45 2
-50 7 -2 21 11 33 29 32 51 63 75 116 91 39 12 44 16 22 16 -32 1 -117 -37
-117 -52 0 -6 -2 -8 -5 -5 -3 3 2 22 12 44 9 21 18 45 19 52 5 25 -16 11 -40
-27 -27 -42 -80 -87 -140 -119 -31 -17 -43 -19 -62 -10 -20 9 -23 17 -20 42 9
68 31 118 80 181 54 70 117 118 132 102 9 -9 -23 -73 -57 -113 -23 -26 -26
-32 -9 -19 61 50 95 106 86 141 -8 30 -39 31 -86 3z m210 -319 c0 -5 -5 -10
-11 -10 -5 0 -7 5 -4 10 3 6 8 10 11 10 2 0 4 -4 4 -10z m144 -46 c3 -9 6 -17
6 -20 0 -9 -62 -34 -86 -34 -23 0 -25 2 -13 17 14 17 69 53 80 53 4 0 10 -7
13 -16z m297 -278 c-7 -8 -25 -16 -40 -18 -39 -6 -30 19 13 37 33 14 46 4 27
-19z"/>
<path d="M4993 6357 c-34 -38 -38 -54 -4 -18 18 18 30 35 28 37 -2 2 -13 -6
-24 -19z"/>
<path d="M4571 6256 c-9 -10 -8 -15 3 -19 8 -3 17 1 20 8 7 20 -9 28 -23 11z"/>
<path d="M4694 6226 c-8 -22 3 -33 18 -18 9 9 9 15 0 24 -9 9 -13 7 -18 -6z"/>
<path d="M5145 6209 c-4 -6 -5 -12 -2 -15 2 -3 7 2 10 11 7 17 1 20 -8 4z"/>
<path d="M4810 6174 c0 -9 5 -14 12 -12 18 6 21 28 4 28 -9 0 -16 -7 -16 -16z"/>
<path d="M5373 6073 c-10 -10 -14 -15 -8 -12 5 4 24 11 40 17 24 8 26 11 9 11
-12 1 -30 -7 -41 -16z"/>
<path d="M5610 6059 c0 -5 5 -7 10 -4 6 3 10 8 10 11 0 2 -4 4 -10 4 -5 0 -10
-5 -10 -11z"/>
<path d="M5180 5987 c0 -15 27 -43 34 -36 3 2 -4 15 -15 28 -13 16 -19 18 -19
8z"/>
<path d="M5730 5824 c0 -2 9 -8 20 -14 11 -6 20 -7 20 -2 0 6 -9 12 -20 15
-11 3 -20 3 -20 1z"/>
<path d="M5530 5773 c0 -12 38 -48 45 -41 3 2 -6 15 -20 28 -14 13 -25 19 -25
13z"/>
<path d="M6236 5425 c4 -8 10 -15 15 -15 22 0 5 -19 -43 -50 -56 -36 -99 -78
-123 -122 -13 -23 -13 -27 1 -32 9 -3 19 -4 22 -2 4 2 32 11 62 20 l55 16 -30
-25 c-64 -55 -85 -77 -79 -86 3 -5 14 -4 27 3 20 10 21 10 8 -5 -19 -23 -6
-21 16 2 10 10 35 24 56 29 37 10 37 10 22 -11 -20 -29 -19 -37 8 -36 19 0 19
1 4 8 -17 6 -17 8 2 30 12 13 21 26 21 29 0 2 -21 2 -47 -2 -27 -3 -41 -3 -33
1 8 3 17 9 20 13 7 10 86 69 138 103 45 29 55 49 21 40 -14 -4 -29 3 -47 22
l-26 28 22 18 c12 9 22 20 22 23 0 10 -29 7 -50 -6 -15 -10 -22 -9 -38 5 -23
21 -33 22 -26 2z m108 -94 c14 -22 -169 -109 -231 -111 -24 0 -2 26 58 70 34
25 73 55 87 67 27 21 27 21 54 2 15 -11 30 -24 32 -28z"/>
<path d="M6298 5324 c-16 -8 -28 -17 -28 -19 0 -11 19 -4 41 15 29 23 24 25
-13 4z"/>
<path d="M6164 5419 c-3 -6 -2 -15 4 -21 13 -13 32 -2 32 18 0 16 -26 19 -36
3z"/>
<path d="M6050 5225 c0 -8 2 -15 4 -15 2 0 6 7 10 15 3 8 1 15 -4 15 -6 0 -10
-7 -10 -15z"/>
<path d="M6480 5100 c-8 -5 -12 -12 -9 -15 4 -3 12 1 19 10 14 17 11 19 -10 5z"/>
<path d="M6505 5067 c-79 -42 -192 -123 -205 -146 -16 -31 11 -46 57 -32 34 9
34 10 6 6 -18 -2 -35 -1 -37 4 -5 8 206 149 259 173 26 12 25 28 -3 28 -9 -1
-44 -15 -77 -33z"/>
<path d="M6476 4951 c-3 -4 6 -6 19 -3 14 2 25 6 25 8 0 8 -39 4 -44 -5z"/>
<path d="M6490 4932 c-8 -3 -26 -9 -40 -14 -14 -5 -27 -9 -29 -8 -9 4 -42 -60
-36 -70 19 -31 181 52 168 85 -4 13 -36 16 -63 7z m50 -17 c0 -9 -76 -53 -104
-59 -24 -6 -26 -5 -15 6 15 15 76 44 117 57 1 1 2 -1 2 -4z"/>
<path d="M6505 4823 c-19 -13 -37 -23 -41 -23 -14 0 -65 -61 -59 -70 3 -6 18
-9 33 -9 17 1 21 3 10 6 -30 8 -21 17 57 62 41 23 77 46 80 51 11 18 -47 5
-80 -17z"/>
<path d="M6550 4749 c-11 -6 -11 -9 -2 -9 8 0 10 -8 7 -23 -4 -15 1 -33 17
-52 19 -24 20 -28 4 -22 -12 5 -26 -2 -47 -22 -46 -47 -27 -69 66 -76 l50 -4
-45 10 c-71 17 -88 38 -46 57 20 9 25 8 30 -4 4 -11 13 -13 28 -8 36 11 39 26
10 48 -42 32 -53 49 -49 79 4 32 -3 40 -23 26z m67 -135 c-3 -3 -12 -4 -19 -1
-8 3 -5 6 6 6 11 1 17 -2 13 -5z"/>
<path d="M6505 4741 c-11 -5 -23 -7 -27 -4 -5 2 -8 -1 -8 -7 0 -12 38 -4 55
11 11 11 7 10 -20 0z"/>
<path d="M6470 4607 c0 -7 7 -22 15 -33 14 -18 15 -17 6 7 -5 15 -7 30 -4 33
4 3 1 6 -5 6 -7 0 -12 -6 -12 -13z"/>
<path d="M6550 4486 c0 -9 7 -16 16 -16 9 0 14 5 12 12 -6 18 -28 21 -28 4z"/>
<path d="M6590 4360 c0 -5 6 -10 14 -10 8 0 18 5 21 10 3 6 -3 10 -14 10 -12
0 -21 -4 -21 -10z"/>
<path d="M6632 4238 c6 -18 28 -21 28 -4 0 9 -7 16 -16 16 -9 0 -14 -5 -12
-12z"/>
</g>
</svg>
